<svg width="23" height="22" viewBox="0 0 23 22" fill="none" xmlns="http://www.w3.org/2000/svg">
<path fill-rule="evenodd" clip-rule="evenodd" d="M22.9131 11C22.9131 4.92534 17.9878 0 11.9131 0C5.83843 0 0.913086 4.92534 0.913086 11C0.913086 16.49 4.93507 21.0409 10.1945 21.8671V14.1805H7.40078V11H10.1945V8.576C10.1945 5.8194 11.8373 4.2957 14.3495 4.2957C15.5529 4.2957 16.8121 4.51071 16.8121 4.51071V7.21783H15.4245C14.0587 7.21783 13.6317 8.06553 13.6317 8.93641V10.9999H16.6821L16.1948 14.1804H13.6316V21.867C18.891 21.0424 22.913 16.4914 22.913 10.9999L22.9131 11Z" fill="white"/>
<path fill-rule="evenodd" clip-rule="evenodd" d="M16.1949 14.1803L16.6822 10.9999H13.6318V8.93637C13.6318 8.06701 14.0572 7.21779 15.4246 7.21779H16.8122V4.51067C16.8122 4.51067 15.5531 4.29565 14.3496 4.29565C11.8374 4.29565 10.1946 5.81783 10.1946 8.57596V11H7.40088V14.1804H10.1946V21.867C10.7546 21.9551 11.3285 22 11.9132 22C12.4979 22 13.0718 21.9535 13.6318 21.867V14.1804H16.195L16.1949 14.1803Z" fill="#292929"/>
</svg>
