<svg width="26" height="22" viewBox="0 0 26 22" fill="none" xmlns="http://www.w3.org/2000/svg">
<g clip-path="url(#clip0_1_430)">
<path d="M22.6484 5.53118C22.6634 5.7652 22.6634 5.99922 22.6634 6.23539C22.6634 13.4318 17.5692 21.7314 8.25412 21.7314V21.7271C5.50242 21.7314 2.80788 20.8838 0.491394 19.2855C0.891514 19.3373 1.29364 19.3632 1.69677 19.3642C3.97715 19.3664 6.19235 18.5436 7.98637 17.0284C5.8193 16.9841 3.91899 15.4646 3.25513 13.2463C4.01425 13.4037 4.79644 13.3714 5.54153 13.1525C3.17892 12.6391 1.47916 10.4068 1.47916 7.81422C1.47916 7.79049 1.47916 7.76785 1.47916 7.7452C2.18313 8.16687 2.97133 8.40089 3.77759 8.42677C1.55236 6.82745 0.866444 3.64392 2.2102 1.1549C4.7814 4.55735 8.57502 6.62579 12.6474 6.84471C12.2393 4.95314 12.7968 2.97098 14.1125 1.64127C16.1522 -0.420694 19.3602 -0.315007 21.2776 1.87745C22.4117 1.63696 23.4988 1.18941 24.4936 0.555288C24.1155 1.81598 23.3243 2.88686 22.2673 3.56735C23.2711 3.4401 24.2519 3.15108 25.1755 2.71C24.4956 3.80569 23.6392 4.7601 22.6484 5.53118Z" fill="white"/>
</g>
<defs>
<clipPath id="clip0_1_430">
<rect width="24.8696" height="22" fill="white" transform="translate(0.391113)"/>
</clipPath>
</defs>
</svg>
