<svg width="30" height="22" viewBox="0 0 30 22" fill="none" xmlns="http://www.w3.org/2000/svg">
<path d="M15.7438 21.9722L9.66029 21.8581C7.69059 21.8183 5.71599 21.8977 3.78492 21.4856C0.847305 20.8699 0.639194 17.8511 0.421428 15.3189C0.121368 11.7589 0.23753 8.13428 0.803781 4.604C1.12345 2.62315 2.38147 1.44115 4.32696 1.31253C10.8944 0.845739 17.5055 0.901058 24.0584 1.11883C24.7505 1.1388 25.4473 1.24791 26.1297 1.37212C29.4982 1.9779 29.5804 5.3989 29.7987 8.27875C30.0165 11.1883 29.9246 14.1128 29.5083 17.0026C29.1744 19.3952 28.5355 21.4017 25.8393 21.5954C22.4611 21.8486 19.1604 22.0526 15.7727 21.9876C15.7729 21.9722 15.7534 21.9722 15.7438 21.9722ZM12.1673 15.9148C14.713 14.4152 17.2102 12.9406 19.7414 11.451C17.1909 9.95146 14.6985 8.47687 12.1673 6.98734V15.9148Z" fill="white"/>
</svg>
