<svg width="19" height="18" viewBox="0 0 19 18" fill="none" xmlns="http://www.w3.org/2000/svg">
<path d="M15.2955 11.4437C15.0606 11.6714 14.9526 12.0006 15.0062 12.3236L15.8126 16.7866C15.8806 17.1649 15.721 17.5477 15.4044 17.7663C15.0941 17.9931 14.6814 18.0203 14.343 17.8389L10.3254 15.7434C10.1857 15.6691 10.0306 15.6291 9.87182 15.6246H9.62599C9.54072 15.6373 9.45727 15.6645 9.38107 15.7062L5.3625 17.8117C5.16384 17.9115 4.93887 17.9469 4.71844 17.9115C4.18142 17.8099 3.82311 17.2983 3.9111 16.7585L4.71844 12.2955C4.77196 11.9698 4.66401 11.6387 4.42907 11.4074L1.15343 8.23244C0.879482 7.96665 0.784234 7.56752 0.909417 7.20739C1.03097 6.84816 1.34121 6.586 1.71585 6.52704L6.22427 5.873C6.56716 5.83763 6.86833 5.62899 7.02254 5.32056L9.00914 1.24757C9.05632 1.15686 9.11709 1.0734 9.19057 1.00264L9.27221 0.939146C9.31485 0.891975 9.36383 0.852969 9.41826 0.821219L9.51714 0.784934L9.67135 0.721436H10.0532C10.3943 0.756813 10.6946 0.960917 10.8515 1.26571L12.8644 5.32056C13.0096 5.61719 13.2917 5.82311 13.6173 5.873L18.1258 6.52704C18.5068 6.58147 18.8252 6.84454 18.9512 7.20739C19.0701 7.57114 18.9676 7.97028 18.6882 8.23244L15.2955 11.4437Z" fill="#DE8F32"/>
</svg>
