<svg width="36" height="40" viewBox="0 0 36 40" fill="none" xmlns="http://www.w3.org/2000/svg">
<path fill-rule="evenodd" clip-rule="evenodd" d="M16.8302 0.79021C17.5925 0.555933 18.4075 0.555932 19.1698 0.79021L25.1412 2.62555C28.2565 3.58303 31.2151 4.99075 33.9232 6.80407C36.0295 8.21445 35.0311 11.4999 32.4962 11.4999H3.50381C0.968913 11.4999 -0.0294828 8.21445 2.07682 6.80407C4.78489 4.99076 7.74347 3.58303 10.8588 2.62555L16.8302 0.79021ZM18.2884 3.65782C18.1005 3.60006 17.8995 3.60006 17.7116 3.65782L11.7401 5.49316C9.37851 6.219 7.11582 7.22908 5.00138 8.49993H30.9986C28.8842 7.22908 26.6215 6.219 24.2599 5.49316L18.2884 3.65782Z" fill="#FF6B00"/>
<path d="M2.5 37.9999C2.5 37.1715 3.17157 36.4999 4 36.4999H32C32.8284 36.4999 33.5 37.1715 33.5 37.9999C33.5 38.8284 32.8284 39.4999 32 39.4999H4C3.17157 39.4999 2.5 38.8284 2.5 37.9999Z" fill="#FF6B00"/>
<path d="M6.5 29.9999C6.5 30.8284 7.17157 31.4999 8 31.4999C8.82843 31.4999 9.5 30.8284 9.5 29.9999L9.5 17.9999C9.5 17.1715 8.82843 16.4999 8 16.4999C7.17157 16.4999 6.5 17.1715 6.5 17.9999L6.5 29.9999Z" fill="#FF6B00"/>
<path d="M18 31.4999C17.1716 31.4999 16.5 30.8284 16.5 29.9999L16.5 17.9999C16.5 17.1715 17.1716 16.4999 18 16.4999C18.8284 16.4999 19.5 17.1715 19.5 17.9999V29.9999C19.5 30.8284 18.8284 31.4999 18 31.4999Z" fill="#FF6B00"/>
<path d="M26.5 29.9999C26.5 30.8284 27.1716 31.4999 28 31.4999C28.8284 31.4999 29.5 30.8284 29.5 29.9999V17.9999C29.5 17.1715 28.8284 16.4999 28 16.4999C27.1716 16.4999 26.5 17.1715 26.5 17.9999V29.9999Z" fill="#FF6B00"/>
</svg>
