<svg width="32" height="39" viewBox="0 0 32 39" fill="none" xmlns="http://www.w3.org/2000/svg">
<path d="M5.43599 25.4659H26.7871M5.0917 21.4482H27.1315M27.8657 12.884L26.2581 31.6398C26.0803 33.7142 25.9913 34.7512 25.5303 35.5361C25.1243 36.2272 24.5216 36.7811 23.7983 37.1266C22.977 37.5189 21.936 37.519 19.8539 37.519H12.3708C10.2888 37.519 9.24705 37.5189 8.42571 37.1266C7.70241 36.7811 7.09935 36.2272 6.69338 35.536C6.23237 34.7512 6.14345 33.7142 5.96564 31.6398L4.358 12.884C4.25423 11.6733 4.2024 11.0678 4.40618 10.6007C4.58522 10.1903 4.89625 9.85158 5.28984 9.63815C5.73782 9.39522 6.34547 9.39522 7.56057 9.39522H24.6638C25.8789 9.39522 26.4868 9.39522 26.9348 9.63815C27.3284 9.85158 27.6386 10.1903 27.8177 10.6007C28.0214 11.0678 27.9695 11.6733 27.8657 12.884ZM26.6528 9.39522H5.57135C3.76016 9.39522 2.85459 9.39515 2.32857 9.01611C1.86475 8.68189 1.56555 8.16594 1.50549 7.59742C1.43737 6.95264 1.88706 6.16642 2.78566 4.59387C3.45696 3.41909 3.79262 2.83169 4.26368 2.40376C4.68482 2.02119 5.18228 1.73239 5.72339 1.55655C6.32865 1.35986 7.00496 1.35986 8.35802 1.35986H23.8667C25.2198 1.35986 25.8963 1.35986 26.5015 1.55655C27.0427 1.73239 27.5397 2.02119 27.9609 2.40376C28.4319 2.83169 28.7676 3.41909 29.4389 4.59387C30.3375 6.16642 30.787 6.95265 30.7188 7.59742C30.6588 8.16594 30.36 8.68189 29.8962 9.01611C29.3701 9.39515 28.4639 9.39522 26.6528 9.39522Z" stroke="#FF7500" stroke-width="2" stroke-linecap="round" stroke-linejoin="round"/>
</svg>
